PathFileType	4	(X/Y/Z)	C:/Users/opensim2020/Desktop/walking_exp_matlab/subject02_walking11_straight_03.trc	
DataRate	CameraRate	NumFrames	NumMarkers	Units	OrigDataRate	OrigDataStartFrame	OrigNumFrames	
100.00	100.00	8	42	mm	100.00	2598	250	
Frame#	Time	LFHD			RFHD			LBHD			RBHD			C7			T10			CLAV			STRN			RBAK			LSHO			LUPA			LELB			LFRM			LWRA			LWRB			LFIN			RSHO			RUPA			RELB			RFRM			RWRA			RWRB			RFIN			LASI			RASI			LPSI			RPSI			LTHI			LKNE			LTIB			LANK			LHEE			LTOE			RTHI			RKNE			RTIB			RANK			RHEE			RTOE			*39			*40			*41			
		X1	Y1	Z1	X2	Y2	Z2	X3	Y3	Z3	X4	Y4	Z4	X5	Y5	Z5	X6	Y6	Z6	X7	Y7	Z7	X8	Y8	Z8	X9	Y9	Z9	X10	Y10	Z10	X11	Y11	Z11	X12	Y12	Z12	X13	Y13	Z13	X14	Y14	Z14	X15	Y15	Z15	X16	Y16	Z16	X17	Y17	Z17	X18	Y18	Z18	X19	Y19	Z19	X20	Y20	Z20	X21	Y21	Z21	X22	Y22	Z22	X23	Y23	Z23	X24	Y24	Z24	X25	Y25	Z25	X26	Y26	Z26	X27	Y27	Z27	X28	Y28	Z28	X29	Y29	Z29	X30	Y30	Z30	X31	Y31	Z31	X32	Y32	Z32	X33	Y33	Z33	X34	Y34	Z34	X35	Y35	Z35	X36	Y36	Z36	X37	Y37	Z37	X38	Y38	Z38	X39	Y39	Z39	X40	Y40	Z40	X41	Y41	Z41	X42	Y42	Z42	

219	2.180	1385.42297	787.40839	1743.01831	1528.77344	789.06689	1729.20593	1378.69092	672.27399	1646.05078	1520.71814	661.52905	1628.50623	1461.46936	631.41821	1516.98230	1468.77271	585.56146	1238.62915	1440.41357	771.84973	1450.63489	1451.33167	830.08105	1281.22253	1531.50061	580.79352	1343.91968	1275.84351	689.30615	1488.33569	1196.75208	658.88287	1289.38000	1188.34729	639.99323	1151.48877	1166.86194	629.05853	1023.07526	1175.32495	672.88751	888.83789	1154.42358	621.16925	899.68732	1144.38159	629.69922	833.83130	1641.45203	727.64514	1487.26172	1723.68457	727.45288	1291.17676	1736.37219	765.07281	1148.19739	1749.23926	818.72534	1040.06592	1720.44531	890.17712	926.89154	1758.01550	849.12817	913.55908	1753.95605	898.80005	860.03430	1322.53589	837.18134	1001.90143	1575.41541	834.06976	967.25830	1400.76013	623.69501	1022.81213	1516.47559	618.83337	1017.34583	1264.20093	830.94104	687.97321	1299.66858	833.71368	483.73456	1308.75049	800.15057	290.67386	1349.45190	829.37756	73.46986	1406.99609	802.36035	47.00469	1315.83911	982.70709	40.27466	1657.13049	710.98224	667.86823	1653.21851	683.89026	465.77197	1653.47253	543.88074	342.32498	1620.42896	419.57565	195.55453	1557.72192	370.49689	176.02408	1632.51025	483.14807	42.48423	1472.21240	674.43451	1791.93457	-3360.42993	2845.23730	1034.12915			 
220	2.190	1382.91394	795.58435	1743.89282	1526.22339	797.05145	1729.93030	1376.01978	680.04681	1647.32178	1517.78662	668.98761	1629.59497	1458.71228	638.90332	1517.75269	1465.64404	593.24640	1239.24451	1437.73462	779.41016	1451.70471	1448.58472	837.92786	1282.44958	1528.60510	589.55267	1344.49683	1273.42249	696.75958	1489.38647	1193.55774	666.73065	1290.22083	1185.09082	650.03241	1151.78015	1163.82764	641.08881	1022.79108	1172.87610	687.78064	889.91547	1152.24487	635.75812	899.87244	1141.83179	644.99963	834.01392	1638.68860	734.81104	1488.00830	1721.25269	734.17224	1292.03601	1733.76147	770.81580	1149.01331	1747.37244	823.40363	1040.43762	1718.75574	893.78406	926.22443	1756.35803	852.58862	913.60583	1752.46851	901.53290	859.30994	1319.17139	844.79395	1002.42572	1571.84473	841.61169	968.11328	1397.60596	631.65955	1023.69763	1513.37695	626.28168	1018.26721	1262.06213	836.22528	688.01935	1298.00793	836.42743	483.91574	1307.20361	801.52026	290.72418	1349.36572	829.42407	73.49995	1406.88635	802.37537	46.78496	1315.84839	982.75348	40.24393	1655.29443	723.07306	666.99451	1653.28760	700.78064	465.69794	1653.95374	559.76593	344.55606	1620.40527	432.11008	201.08746	1558.09534	382.08447	183.89891	1631.11877	490.16525	46.18602	1469.65039	682.66931	1793.11340	-3360.25757	2845.17969	1034.26538			 
221	2.200	1380.37598	803.56140	1744.69202	1523.78198	804.95477	1730.68201	1373.44556	687.82715	1648.56311	1515.19641	676.62885	1630.76575	1455.95850	646.46753	1518.55566	1462.75769	600.96588	1240.33569	1435.26855	787.01489	1452.73389	1445.52588	844.43488	1283.26575	1525.88379	595.93597	1345.47339	1270.87463	704.29211	1490.32361	1190.79761	675.61914	1290.90588	1182.10120	660.18933	1152.27820	1161.47205	653.34790	1022.86017	1171.26355	702.17120	890.67810	1150.06848	650.33044	899.92651	1139.85034	660.94379	834.24054	1635.90112	741.74146	1488.79785	1718.89099	740.74298	1292.82654	1731.02759	776.49237	1149.63733	1745.21655	828.09204	1040.73816	1717.52478	897.68890	925.85754	1754.76392	856.05157	913.65222	1750.86792	904.14374	858.28375	1316.21887	852.24377	1002.50153	1568.66724	848.40973	968.74579	1394.33386	639.23798	1024.82666	1510.15747	633.44684	1019.28101	1259.93774	840.94366	687.81781	1296.37244	838.98242	483.85144	1305.91223	803.26245	290.95834	1349.57361	829.73517	73.34506	1406.91260	802.21497	46.93760	1315.75879	982.68256	40.08550	1653.92334	735.42548	666.92468	1653.01453	717.61078	465.72562	1654.11255	575.75470	346.93777	1619.67322	445.21487	206.38020	1557.48792	394.89404	191.01166	1631.54211	499.73447	50.77078	1467.36353	690.90765	1794.37048	-3357.18945	2845.87451	1034.24768			 
222	2.210	1378.14099	811.69031	1745.58716	1521.41577	812.80621	1731.43921	1370.75659	695.51764	1649.61255	1512.93823	684.39343	1631.93066	1453.23352	653.95374	1519.44751	1459.49817	608.45837	1241.05444	1432.82764	794.57318	1453.67737	1443.62024	853.15790	1284.55554	1523.08984	603.47919	1346.42444	1268.28735	711.98145	1491.10852	1187.87537	684.27460	1291.49841	1178.98047	670.09290	1152.58655	1158.80615	665.95239	1022.90875	1169.61047	716.92603	891.70148	1147.73657	665.12000	899.75891	1137.61926	677.17444	834.65100	1633.83801	748.83160	1489.77100	1716.24097	747.04248	1293.39319	1728.45508	782.13080	1150.20996	1743.32422	832.68085	1040.98950	1716.26343	901.58972	925.33649	1753.26416	859.51489	913.68701	1749.62073	906.87933	857.61542	1313.55420	859.62793	1002.18744	1566.48010	855.48480	969.57977	1390.94800	646.52014	1026.06421	1506.78357	640.32330	1020.33020	1257.99426	844.95465	687.61877	1294.93201	841.57855	483.68390	1304.82239	804.83356	290.91113	1349.18713	829.33942	73.38231	1406.86548	802.11285	46.92915	1315.79517	982.66016	40.01204	1652.42285	747.64520	667.18329	1652.36157	734.49854	466.11481	1653.26135	591.52924	349.28311	1618.40735	459.13498	211.46613	1555.41150	408.60904	195.90530	1632.94568	511.48315	55.93011	1464.90381	699.01013	1795.42297	-3357.48828	2845.92480	1034.20569			 
223	2.220	1375.70691	819.47260	1746.43469	1519.13049	820.67792	1732.24622	1368.55212	703.39087	1650.84265	1510.41357	692.07568	1632.93542	1450.59045	661.63580	1520.37354	1456.58484	615.91138	1242.24817	1430.55615	802.08191	1454.56812	1440.84875	859.31116	1285.01233	1519.85168	610.33002	1347.09680	1265.56567	719.86871	1491.82727	1185.09961	693.03857	1292.21497	1175.81238	680.01764	1152.91162	1156.09448	678.38843	1022.99219	1167.90308	731.88940	892.81641	1145.79346	680.04230	899.81342	1135.49756	693.73248	835.21704	1631.52795	755.70282	1490.38428	1713.77966	753.32330	1294.01892	1725.76697	787.65613	1150.69189	1741.45874	837.38031	1041.26465	1714.99414	905.26257	924.79199	1751.75232	862.96796	913.69983	1748.68396	909.76367	857.19781	1311.29834	866.96997	1001.63885	1564.59631	862.07916	970.31976	1387.64001	653.68994	1027.24048	1503.37988	646.91797	1021.41437	1256.26929	848.42590	687.15106	1293.59631	844.12402	483.40707	1303.86938	806.48035	290.88177	1349.19324	829.43463	73.26138	1406.83777	801.96857	46.89421	1315.73669	982.51843	39.80000	1651.00952	759.94476	667.90503	1651.51001	751.23090	467.02826	1652.01758	607.78070	352.20908	1616.13757	473.37427	215.63759	1552.76477	423.61380	199.53900	1634.46606	524.98138	60.44885	1462.43945	706.90991	1796.38000	-3357.25122	2845.86572	1034.25830			 
224	2.230	1373.63098	827.47113	1747.30176	1516.98865	828.51282	1733.06384	1366.09192	711.11115	1651.71069	1507.84998	699.61322	1633.84802	1447.80908	669.18835	1521.34241	1453.54700	623.21912	1243.36108	1428.35278	809.62360	1455.35718	1439.13086	867.79169	1286.01233	1516.80603	617.93274	1347.99756	1263.23828	728.18195	1492.75476	1182.45068	702.02185	1292.83667	1172.56067	690.03046	1153.20117	1153.56995	690.86255	1022.90887	1166.22424	747.21729	894.25598	1144.13123	695.61786	899.86023	1133.62280	710.50439	835.87091	1629.36487	762.61682	1491.24365	1711.27832	759.52313	1294.65649	1723.59009	793.47198	1151.41248	1739.55920	842.05176	1041.64270	1714.02869	909.34888	924.56738	1750.39978	866.48120	913.87317	1747.74097	912.68237	856.81232	1308.87537	874.64557	1001.22034	1562.76611	868.19897	970.90973	1384.36536	660.70673	1028.47473	1499.97742	653.25433	1022.51672	1255.03259	851.91211	687.00922	1292.32849	846.88873	483.21988	1303.04810	807.95459	290.85141	1349.17993	829.47137	73.23689	1406.81201	801.81970	46.89448	1315.78748	982.49219	39.76548	1649.71960	772.29980	668.94568	1650.51343	768.01166	468.47281	1650.20154	623.89813	354.82483	1613.75977	488.65915	219.02293	1549.90784	439.39297	201.51001	1636.18640	540.35754	64.78905	1460.17297	714.83960	1797.34094	-3357.32349	2845.77368	1034.22388			 
225	2.240	1371.50732	835.36298	1748.18372	1514.64270	836.04370	1733.78418	1363.96814	719.08014	1652.79932	1505.63269	707.32275	1634.81128	1445.51819	676.99695	1522.57861	1450.55371	630.31934	1244.51343	1426.17993	817.11627	1456.12451	1437.09436	874.94299	1286.59961	1513.75378	625.16071	1348.95947	1260.60596	736.34583	1493.59583	1179.76282	710.84692	1293.56689	1169.38550	699.92322	1153.67383	1151.15515	704.29694	1023.12408	1164.74243	762.66455	895.89221	1142.31909	710.82599	900.38379	1131.80078	727.61096	836.90448	1627.11255	769.52722	1491.86084	1709.04236	765.65759	1295.45593	1721.14587	798.89526	1151.88550	1737.87427	846.70905	1041.93567	1712.98230	913.24969	924.30615	1749.02991	870.03540	914.06390	1746.91260	915.75732	856.59033	1307.28040	881.33502	1000.42554	1561.63843	874.70850	971.81750	1381.26367	667.47778	1029.69299	1496.60718	659.40680	1023.56677	1253.95447	855.55768	686.93817	1291.60229	849.40973	483.12723	1302.21057	809.29883	290.78351	1349.19360	829.44696	73.18879	1406.85974	801.78906	46.90227	1315.85022	982.48865	39.72188	1648.52332	784.65894	670.27173	1649.44092	784.60681	470.26657	1648.11963	639.97803	357.21152	1611.42419	504.75079	221.38573	1547.46252	455.85208	202.59290	1637.69568	556.79236	68.19669	1457.98022	722.71948	1798.36707	-3357.22363	2845.73657	1034.26746			 
226	2.250	1369.44690	843.24188	1749.04932	1512.58020	843.75452	1734.64905	1361.88184	726.85663	1653.77771	1503.46362	715.03998	1635.75745	1443.08105	684.58148	1523.75647	1447.58289	637.37683	1245.73328	1424.18774	824.56720	1456.83594	1434.49023	880.65967	1286.69824	1510.77454	632.07739	1350.06177	1258.36316	744.88593	1494.65247	1176.97192	719.67731	1294.39709	1166.01147	709.84338	1154.04834	1148.33679	716.62549	1023.52155	1163.38623	778.08167	897.77252	1140.54993	726.40424	900.97845	1130.13782	744.79980	837.99127	1624.91040	776.49536	1492.56921	1706.33972	771.50232	1295.97119	1719.25610	804.53796	1152.65076	1736.12024	851.32556	1042.30457	1711.94421	917.01837	924.09821	1747.66846	873.70465	914.24756	1746.11548	918.99561	856.49866	1305.38269	888.29510	999.86517	1560.40271	880.87128	972.67401	1378.34412	674.15991	1030.81592	1493.50940	665.44409	1024.67725	1252.90955	859.40210	686.76141	1290.66980	851.68933	483.02682	1301.68848	810.59180	291.05457	1349.19592	829.43506	73.20606	1406.85974	801.70117	46.92238	1315.90454	982.56439	39.74334	1647.42273	797.06885	671.76929	1648.00989	800.63226	472.12787	1645.86865	656.05554	359.26956	1609.14331	521.36298	222.85999	1544.58301	473.07996	202.31956	1639.14417	574.62531	71.10761	1455.86279	730.46094	1799.32666	-3360.29688	2845.22876	1034.07397			 
